<svg xmlns="http://www.w3.org/2000/svg" viewBox="0 0 81 81" shape-rendering="crispEdges"><path fill="#ffffff" d="M0 0h81v81H0z"/><path stroke="#000000" d="M2 2.5h7m2 0h1m1 0h1m1 0h1m3 0h1m1 0h1m1 0h2m1 0h3m2 0h1m1 0h4m1 0h7m3 0h1m1 0h1m6 0h2m2 0h1m1 0h1m1 0h2m5 0h7M2 3.5h1m5 0h1m6 0h1m2 0h1m1 0h2m3 0h3m1 0h1m1 0h2m2 0h1m2 0h1m3 0h2m1 0h1m1 0h3m2 0h1m3 0h4m4 0h2m2 0h1m1 0h1m1 0h1m5 0h1M2 4.5h1m1 0h3m1 0h1m1 0h1m1 0h1m2 0h4m3 0h1m2 0h1m4 0h4m1 0h1m1 0h3m1 0h6m1 0h4m1 0h2m1 0h5m2 0h1m6 0h1m1 0h1m1 0h3m1 0h1M2 5.5h1m1 0h3m1 0h1m1 0h1m1 0h2m1 0h2m3 0h3m2 0h2m1 0h1m1 0h3m7 0h1m6 0h1m1 0h3m2 0h1m5 0h1m1 0h1m3 0h1m3 0h1m1 0h1m1 0h3m1 0h1M2 6.5h1m1 0h3m1 0h1m1 0h1m3 0h3m3 0h2m1 0h1m2 0h7m5 0h1m1 0h2m1 0h3m1 0h6m2 0h2m1 0h2m3 0h2m3 0h3m1 0h1m1 0h3m1 0h1M2 7.5h1m5 0h1m1 0h2m3 0h3m1 0h2m5 0h1m3 0h4m1 0h3m1 0h1m4 0h2m2 0h1m3 0h1m1 0h2m2 0h3m1 0h1m2 0h2m1 0h1m3 0h1m5 0h1M2 8.5h7m1 0h1m1 0h1m1 0h1m1 0h1m1 0h1m1 0h1m1 0h1m1 0h1m1 0h1m1 0h1m1 0h1m1 0h1m1 0h1m1 0h1m1 0h1m1 0h1m1 0h1m1 0h1m1 0h1m1 0h1m1 0h1m1 0h1m1 0h1m1 0h1m1 0h1m1 0h1m1 0h1m1 0h1m1 0h1m1 0h1m1 0h1m1 0h7M10 9.5h1m2 0h1m1 0h2m1 0h1m5 0h3m3 0h3m3 0h4m1 0h1m5 0h2m3 0h3m3 0h2m1 0h1m5 0h1m1 0h2M2 10.5h1m1 0h5m3 0h3m4 0h4m1 0h7m1 0h2m1 0h2m1 0h5m2 0h1m2 0h5m1 0h2m1 0h1m1 0h2m4 0h3m2 0h1m1 0h5M4 11.5h1m1 0h1m2 0h1m2 0h1m5 0h2m6 0h1m1 0h2m2 0h2m2 0h1m1 0h2m1 0h1m2 0h1m1 0h2m1 0h2m7 0h3m4 0h4m4 0h1m1 0h3M3 12.5h1m1 0h1m1 0h2m1 0h1m1 0h6m1 0h1m2 0h1m2 0h1m1 0h1m4 0h1m2 0h1m1 0h3m1 0h2m1 0h1m2 0h1m3 0h1m2 0h1m2 0h3m2 0h1m2 0h1m2 0h2m1 0h1m1 0h2m1 0h3M2 13.5h1m2 0h2m3 0h3m4 0h2m1 0h1m2 0h2m1 0h3m2 0h1m1 0h2m3 0h2m3 0h1m2 0h2m1 0h1m1 0h1m6 0h2m1 0h1m1 0h2m1 0h4m6 0h3M3 14.5h1m3 0h3m2 0h2m1 0h1m2 0h1m1 0h2m2 0h5m2 0h1m1 0h2m1 0h1m1 0h1m1 0h1m4 0h1m2 0h5m1 0h2m2 0h2m4 0h2m2 0h2m1 0h1m1 0h3m2 0h1M2 15.5h1m3 0h2m1 0h2m4 0h1m3 0h1m1 0h2m1 0h1m4 0h4m1 0h1m2 0h1m3 0h3m2 0h5m2 0h2m1 0h1m1 0h1m1 0h1m1 0h2m1 0h1m3 0h1m1 0h1m1 0h2m1 0h1M2 16.5h1m1 0h1m1 0h1m1 0h1m2 0h1m1 0h2m4 0h1m2 0h3m1 0h2m5 0h1m4 0h2m1 0h2m1 0h3m1 0h1m1 0h1m1 0h2m3 0h2m1 0h1m3 0h1m2 0h1m5 0h4M4 17.5h2m1 0h1m1 0h2m3 0h4m3 0h2m1 0h8m1 0h3m2 0h1m2 0h1m2 0h1m2 0h3m3 0h2m1 0h1m6 0h2m1 0h6m3 0h1m2 0h1M5 18.5h4m1 0h1m2 0h1m2 0h2m4 0h6m1 0h2m4 0h2m2 0h1m1 0h2m5 0h1m2 0h1m5 0h1m1 0h1m2 0h1m1 0h4m2 0h1m3 0h2m2 0h1M3 19.5h1m1 0h2m2 0h4m1 0h2m2 0h5m1 0h2m1 0h1m2 0h2m1 0h3m2 0h4m5 0h1m3 0h1m3 0h2m1 0h5m1 0h3m2 0h1m1 0h1m1 0h2m2 0h2M2 20.5h2m1 0h7m2 0h1m1 0h2m1 0h2m1 0h4m1 0h1m1 0h2m1 0h2m1 0h1m2 0h1m1 0h1m2 0h2m1 0h3m1 0h6m1 0h3m1 0h2m2 0h1m1 0h1m6 0h5M2 21.5h1m1 0h4m2 0h1m3 0h1m2 0h2m1 0h3m1 0h3m1 0h1m1 0h5m3 0h1m4 0h1m3 0h1m1 0h1m3 0h1m4 0h1m1 0h1m3 0h1m1 0h1m1 0h1m1 0h1m1 0h1m2 0h1m1 0h1M2 22.5h2m1 0h4m2 0h1m1 0h4m1 0h2m1 0h1m1 0h2m1 0h5m1 0h5m1 0h3m6 0h1m3 0h2m6 0h2m4 0h1m1 0h1m3 0h1m4 0h3M2 23.5h1m2 0h1m3 0h1m1 0h2m3 0h1m1 0h3m2 0h1m6 0h1m3 0h1m4 0h1m3 0h1m7 0h1m2 0h1m1 0h5m3 0h3m2 0h1m2 0h1m2 0h1m2 0h1M7 24.5h3m1 0h4m2 0h3m4 0h1m2 0h1m3 0h3m4 0h2m1 0h1m1 0h4m2 0h6m3 0h2m1 0h1m1 0h4m3 0h1m2 0h1m1 0h2m1 0h1M5 25.5h2m3 0h1m2 0h4m1 0h1m4 0h1m1 0h2m3 0h4m1 0h1m1 0h1m1 0h2m1 0h3m2 0h1m2 0h1m3 0h2m1 0h2m6 0h2m1 0h1m3 0h7M4 26.5h1m1 0h5m6 0h1m3 0h1m1 0h2m1 0h5m1 0h1m2 0h1m1 0h1m2 0h2m1 0h1m1 0h1m1 0h6m5 0h1m10 0h8M3 27.5h1m2 0h1m3 0h1m1 0h1m2 0h1m1 0h2m1 0h2m2 0h3m3 0h1m2 0h1m1 0h1m3 0h5m1 0h4m3 0h1m1 0h1m3 0h1m1 0h1m3 0h3m1 0h1m1 0h1m3 0h1m3 0h1M2 28.5h5m1 0h1m1 0h1m2 0h3m5 0h1m4 0h1m1 0h1m1 0h3m2 0h1m1 0h3m1 0h4m2 0h2m1 0h1m1 0h3m4 0h4m1 0h1m1 0h2m1 0h2m1 0h1m1 0h3m1 0h1M2 29.5h3m1 0h1m3 0h2m1 0h1m3 0h1m3 0h1m3 0h2m3 0h1m1 0h1m1 0h1m1 0h1m2 0h3m3 0h1m2 0h1m3 0h1m2 0h1m4 0h1m1 0h1m1 0h3m1 0h1m1 0h1m3 0h1m1 0h3M5 30.5h7m4 0h1m2 0h4m1 0h1m1 0h5m1 0h2m1 0h2m1 0h1m1 0h1m2 0h2m2 0h8m1 0h1m2 0h2m1 0h1m7 0h7M3 31.5h1m1 0h2m2 0h1m2 0h1m1 0h1m1 0h2m2 0h1m1 0h1m6 0h6m1 0h3m1 0h1m1 0h3m2 0h2m2 0h2m2 0h1m1 0h1m1 0h2m2 0h1m1 0h2m4 0h1m3 0h1M2 32.5h4m1 0h3m3 0h2m1 0h3m2 0h1m3 0h4m1 0h1m1 0h1m4 0h3m13 0h1m10 0h1m1 0h1m2 0h2m1 0h3m1 0h3M2 33.5h1m1 0h1m2 0h1m1 0h2m4 0h2m1 0h1m3 0h1m1 0h2m2 0h2m1 0h1m2 0h2m1 0h2m1 0h2m1 0h2m1 0h10m1 0h1m1 0h2m1 0h1m1 0h3m1 0h2m1 0h8M2 34.5h4m1 0h2m2 0h1m3 0h1m1 0h3m1 0h1m2 0h1m1 0h1m2 0h1m1 0h4m3 0h3m3 0h1m3 0h1m1 0h1m1 0h3m1 0h1m1 0h1m1 0h2m1 0h2m1 0h1m1 0h1m1 0h1m1 0h2m2 0h1M2 35.5h3m2 0h1m2 0h1m3 0h2m1 0h2m1 0h1m1 0h2m2 0h2m4 0h1m4 0h2m1 0h1m1 0h1m1 0h1m1 0h3m2 0h1m1 0h4m1 0h3m3 0h1m2 0h5m2 0h2m1 0h2M2 36.5h1m3 0h4m1 0h4m1 0h1m2 0h3m11 0h3m2 0h1m5 0h1m1 0h1m1 0h1m4 0h2m3 0h1m1 0h1m3 0h1m2 0h3m1 0h1m2 0h1m1 0h1M2 37.5h2m1 0h1m6 0h3m1 0h4m2 0h1m1 0h1m1 0h1m1 0h3m1 0h2m1 0h2m4 0h1m1 0h2m5 0h1m8 0h1m8 0h2m1 0h3m1 0h2M2 38.5h4m2 0h3m1 0h1m1 0h12m5 0h2m1 0h2m1 0h3m3 0h1m3 0h4m2 0h2m2 0h1m1 0h2m3 0h1m2 0h1m1 0h4m4 0h1M2 39.5h2m1 0h2m2 0h1m1 0h1m3 0h4m2 0h1m1 0h1m6 0h1m1 0h1m1 0h1m4 0h1m1 0h4m1 0h1m2 0h1m2 0h1m3 0h1m1 0h4m2 0h2m1 0h1m1 0h2m2 0h1m2 0h3M2 40.5h3m1 0h3m3 0h3m1 0h1m1 0h1m1 0h3m1 0h1m1 0h4m1 0h2m2 0h1m2 0h1m1 0h1m3 0h1m3 0h2m3 0h3m6 0h2m2 0h3m1 0h3m1 0h2M4 41.5h4m3 0h1m3 0h4m2 0h2m1 0h1m2 0h1m2 0h1m1 0h2m1 0h2m1 0h1m2 0h1m2 0h1m1 0h1m4 0h1m1 0h1m1 0h1m1 0h3m4 0h6m1 0h2m1 0h1m1 0h1m1 0h1M6 42.5h4m1 0h3m4 0h1m1 0h1m1 0h4m2 0h1m1 0h1m2 0h3m3 0h1m1 0h1m1 0h1m3 0h1m1 0h1m1 0h2m1 0h1m5 0h1m1 0h2m1 0h1m1 0h3m3 0h2m3 0h1M2 43.5h4m1 0h1m1 0h1m1 0h2m3 0h4m1 0h1m5 0h1m1 0h2m2 0h1m2 0h1m1 0h1m2 0h2m2 0h1m3 0h1m1 0h1m5 0h2m2 0h1m1 0h5m1 0h7m2 0h1M2 44.5h4m2 0h2m2 0h2m2 0h1m2 0h1m1 0h2m1 0h1m5 0h4m1 0h3m1 0h1m1 0h2m2 0h1m1 0h2m2 0h2m1 0h1m1 0h3m1 0h1m1 0h2m1 0h2m1 0h1m3 0h1m1 0h2m1 0h1M5 45.5h2m2 0h2m1 0h1m2 0h2m3 0h1m2 0h1m5 0h1m3 0h1m2 0h4m2 0h3m1 0h2m1 0h2m2 0h1m2 0h6m1 0h4m2 0h3m1 0h1m1 0h2M3 46.5h3m2 0h4m3 0h2m4 0h2m1 0h2m1 0h2m3 0h2m3 0h2m1 0h1m5 0h1m1 0h1m1 0h3m1 0h1m5 0h1m4 0h1m1 0h2m2 0h5m1 0h2M3 47.5h2m1 0h2m2 0h2m1 0h1m2 0h1m1 0h1m1 0h1m4 0h3m1 0h1m1 0h2m1 0h2m1 0h4m1 0h5m2 0h4m2 0h2m6 0h5m1 0h3m3 0h3M5 48.5h6m7 0h3m1 0h1m1 0h8m1 0h1m1 0h2m2 0h3m1 0h2m3 0h5m1 0h2m1 0h3m5 0h1m2 0h1m1 0h5m1 0h2M2 49.5h3m1 0h1m3 0h3m1 0h2m7 0h2m1 0h1m3 0h2m2 0h2m1 0h3m1 0h1m1 0h3m2 0h1m3 0h3m1 0h1m1 0h4m1 0h1m3 0h1m2 0h1m3 0h3m1 0h1M3 50.5h1m1 0h2m1 0h1m1 0h1m1 0h2m1 0h2m1 0h4m1 0h1m2 0h1m1 0h1m1 0h2m2 0h1m2 0h2m1 0h2m2 0h2m2 0h1m1 0h1m1 0h1m2 0h1m2 0h3m1 0h1m1 0h1m1 0h5m1 0h1m1 0h1m2 0h1M6 51.5h1m3 0h1m2 0h1m1 0h1m2 0h1m4 0h2m1 0h1m3 0h4m1 0h1m3 0h1m1 0h2m1 0h2m1 0h2m3 0h2m4 0h2m3 0h1m3 0h1m2 0h1m3 0h1m1 0h2M4 52.5h1m1 0h6m2 0h4m2 0h3m3 0h5m6 0h2m2 0h2m1 0h1m2 0h6m2 0h8m1 0h2m4 0h5m1 0h1m1 0h1M4 53.5h1m2 0h1m6 0h1m1 0h4m1 0h1m2 0h4m1 0h1m1 0h1m5 0h3m4 0h1m1 0h3m2 0h1m1 0h1m6 0h2m1 0h3m1 0h2m2 0h3m3 0h2M5 54.5h1m2 0h3m1 0h1m1 0h3m2 0h2m1 0h1m2 0h1m1 0h1m1 0h1m1 0h2m3 0h3m1 0h4m3 0h1m1 0h2m1 0h2m1 0h1m2 0h3m1 0h1m2 0h1m1 0h1m1 0h2m1 0h4m1 0h1M2 55.5h3m1 0h2m3 0h2m5 0h3m2 0h2m5 0h6m3 0h2m2 0h4m2 0h1m1 0h1m1 0h1m1 0h3m1 0h1m1 0h2m2 0h1m2 0h1m2 0h1m1 0h3m1 0h1M2 56.5h1m3 0h1m1 0h3m1 0h2m1 0h2m2 0h1m2 0h2m1 0h2m2 0h1m3 0h1m2 0h1m1 0h1m3 0h1m1 0h2m1 0h5m2 0h1m1 0h1m1 0h3m3 0h2m1 0h1m1 0h1m1 0h4M2 57.5h1m6 0h1m1 0h4m3 0h1m2 0h1m2 0h1m3 0h2m2 0h2m3 0h2m1 0h1m3 0h1m2 0h2m2 0h2m5 0h1m1 0h1m1 0h2m2 0h2m1 0h4m2 0h1M2 58.5h4m1 0h2m1 0h1m2 0h1m1 0h1m1 0h1m1 0h2m2 0h3m1 0h2m3 0h2m3 0h2m1 0h2m2 0h1m1 0h2m2 0h1m6 0h2m5 0h3m1 0h2m3 0h3m1 0h1M4 59.5h2m1 0h1m3 0h2m3 0h2m1 0h2m3 0h3m1 0h1m1 0h6m2 0h1m4 0h2m1 0h1m1 0h7m2 0h1m1 0h1m2 0h1m1 0h1m1 0h1m7 0h2m1 0h1M2 60.5h2m4 0h1m1 0h2m4 0h1m3 0h6m2 0h2m3 0h1m1 0h2m1 0h1m2 0h1m1 0h2m2 0h3m1 0h3m1 0h8m1 0h4m4 0h4m1 0h2M3 61.5h3m4 0h1m2 0h1m1 0h1m2 0h1m1 0h4m1 0h1m2 0h2m1 0h5m1 0h2m4 0h2m3 0h2m2 0h2m2 0h2m2 0h1m1 0h1m1 0h1m1 0h4m1 0h1m1 0h1m1 0h1m1 0h2M3 62.5h1m1 0h2m1 0h4m3 0h3m2 0h3m2 0h1m1 0h1m3 0h2m2 0h4m2 0h2m1 0h1m2 0h2m1 0h2m1 0h1m4 0h1m1 0h1m1 0h5m2 0h3m1 0h2m1 0h3M2 63.5h5m4 0h3m3 0h3m1 0h1m4 0h1m1 0h1m3 0h1m1 0h2m3 0h1m1 0h3m12 0h2m4 0h1m1 0h1m8 0h1m1 0h1m1 0h1M2 64.5h2m1 0h2m1 0h1m1 0h2m2 0h2m1 0h2m1 0h1m1 0h1m1 0h1m3 0h1m1 0h2m1 0h1m1 0h1m1 0h3m1 0h1m1 0h6m3 0h3m1 0h6m1 0h4m8 0h1M3 65.5h1m1 0h2m2 0h2m2 0h1m2 0h1m2 0h1m2 0h1m2 0h1m2 0h1m1 0h2m3 0h1m1 0h3m3 0h1m3 0h3m5 0h2m1 0h1m1 0h1m1 0h5m1 0h3m2 0h1m1 0h1m1 0h2M2 66.5h1m2 0h2m1 0h1m1 0h6m4 0h1m1 0h1m2 0h1m1 0h1m1 0h3m1 0h4m2 0h1m2 0h2m3 0h1m1 0h3m1 0h1m3 0h4m2 0h2m1 0h1m4 0h1m1 0h4M2 67.5h1m1 0h1m2 0h1m1 0h2m3 0h2m2 0h2m3 0h2m2 0h2m1 0h1m3 0h2m5 0h4m1 0h3m1 0h1m1 0h1m1 0h4m6 0h1m2 0h2m1 0h1m1 0h2m4 0h1M3 68.5h1m2 0h4m4 0h1m2 0h2m1 0h2m1 0h1m2 0h1m1 0h3m1 0h4m1 0h3m1 0h1m4 0h1m4 0h1m1 0h1m4 0h2m1 0h4m1 0h2m2 0h2m1 0h1m1 0h3M6 69.5h1m2 0h1m1 0h4m1 0h1m1 0h2m1 0h4m3 0h2m1 0h2m1 0h1m3 0h6m4 0h1m1 0h1m1 0h1m2 0h1m1 0h2m1 0h1m1 0h1m2 0h2m1 0h1m1 0h3m1 0h1m1 0h3M3 70.5h4m1 0h1m1 0h1m3 0h3m1 0h2m4 0h7m2 0h1m4 0h1m1 0h1m1 0h1m4 0h6m1 0h1m1 0h2m3 0h1m3 0h1m4 0h7M10 71.5h1m2 0h5m1 0h2m1 0h2m1 0h2m3 0h3m1 0h2m4 0h6m1 0h2m3 0h1m3 0h4m3 0h1m1 0h1m1 0h4m3 0h2m1 0h2M2 72.5h7m3 0h5m1 0h1m1 0h4m2 0h1m1 0h1m1 0h1m2 0h2m3 0h2m3 0h1m2 0h1m1 0h1m1 0h1m1 0h2m6 0h1m1 0h2m2 0h1m3 0h1m1 0h1m1 0h1m1 0h1m1 0h1M2 73.5h1m5 0h1m1 0h3m5 0h1m3 0h1m2 0h2m3 0h1m1 0h3m1 0h1m1 0h3m1 0h2m2 0h3m3 0h4m3 0h1m5 0h1m2 0h3m3 0h1m1 0h3M2 74.5h1m1 0h3m1 0h1m1 0h3m2 0h2m5 0h1m1 0h1m1 0h9m1 0h2m2 0h2m1 0h2m2 0h7m1 0h2m2 0h1m3 0h2m1 0h1m2 0h7M2 75.5h1m1 0h3m1 0h1m1 0h1m2 0h2m1 0h1m7 0h2m1 0h5m8 0h1m3 0h3m1 0h3m4 0h1m1 0h1m1 0h2m3 0h2m9 0h1m1 0h1M2 76.5h1m1 0h3m1 0h1m1 0h3m1 0h2m1 0h1m1 0h5m1 0h2m3 0h2m1 0h2m2 0h1m1 0h2m3 0h1m1 0h1m1 0h2m4 0h1m3 0h1m1 0h1m1 0h1m1 0h1m6 0h4m1 0h2M2 77.5h1m5 0h1m3 0h1m2 0h2m2 0h1m1 0h2m3 0h1m1 0h4m3 0h1m1 0h1m1 0h1m3 0h3m5 0h2m1 0h1m2 0h1m1 0h1m4 0h1m1 0h8m1 0h4M2 78.5h7m1 0h4m2 0h1m2 0h2m3 0h3m3 0h4m2 0h5m2 0h1m1 0h1m1 0h2m1 0h2m1 0h1m2 0h1m1 0h3m2 0h3m2 0h10"/></svg>
